<svg width="22" height="32" viewBox="0 0 22 32" fill="none" xmlns="http://www.w3.org/2000/svg">
<g clip-path="url(#clip0_147_999)">
<path d="M10.667 16C10.667 13.0845 13.0305 10.7209 15.946 10.7209C18.8615 10.7209 21.2251 13.0845 21.2251 16C21.2251 18.9155 18.8615 21.279 15.946 21.279C13.0305 21.279 10.667 18.9155 10.667 16Z" fill="#1ABCFE"/>
<path d="M0.108398 26.5581C0.108398 23.6426 2.4719 21.2791 5.38743 21.2791H10.6665V26.5581C10.6665 29.4736 8.30299 31.8371 5.38743 31.8371C2.4719 31.8371 0.108398 29.4736 0.108398 26.5581Z" fill="#0ACF83"/>
<path d="M10.667 0.162903V10.7209H15.946C18.8616 10.7209 21.2251 8.35746 21.2251 5.44193C21.2251 2.52641 18.8616 0.162903 15.946 0.162903H10.667Z" fill="#FF7262"/>
<path d="M0.108398 5.44194C0.108398 8.35746 2.4719 10.7209 5.38743 10.7209H10.6665V0.162903H5.38743C2.4719 0.162903 0.108398 2.52641 0.108398 5.44194Z" fill="#F24E1E"/>
<path d="M0.108398 16C0.108398 18.9155 2.4719 21.279 5.38743 21.279H10.6665V10.7209H5.38743C2.4719 10.7209 0.108398 13.0845 0.108398 16Z" fill="#A259FF"/>
</g>
<defs>
<clipPath id="clip0_147_999">
<rect width="21.3333" height="32" fill="white"/>
</clipPath>
</defs>
</svg>
