<svg width="114" height="28" viewBox="0 0 114 28" fill="none" xmlns="http://www.w3.org/2000/svg">
<path id="Vector" d="M12.5829 15.0769H10.3168L3.49848 4.85661V15.0769H1.23234V1.37107H3.49848L10.3168 11.5717V1.37107H12.5829V15.0769ZM14.8034 9.60246C14.8034 8.51279 15.0287 7.54787 15.4793 6.70769C15.9431 5.8675 16.5659 5.21765 17.3478 4.75815C18.143 4.28553 19.0176 4.04922 19.9718 4.04922C20.8332 4.04922 21.5819 4.21987 22.2181 4.56122C22.8674 4.88941 23.3842 5.30295 23.7686 5.80184V4.22645H26.0546V15.0769H23.7686V13.4621C23.3842 13.9741 22.8608 14.4008 22.1982 14.7421C21.5355 15.0835 20.7802 15.2541 19.932 15.2541C18.9911 15.2541 18.1297 15.0178 17.3478 14.5452C16.5659 14.0595 15.9431 13.39 15.4793 12.5366C15.0287 11.6701 14.8034 10.6921 14.8034 9.60246ZM23.7686 9.64184C23.7686 8.89353 23.6095 8.24369 23.2915 7.6923C22.9867 7.14092 22.5825 6.72079 22.0789 6.43199C21.5753 6.14319 21.032 5.99876 20.4489 5.99876C19.8657 5.99876 19.3224 6.14319 18.8188 6.43199C18.3152 6.70769 17.9044 7.12122 17.5864 7.67261C17.2816 8.21089 17.1292 8.85415 17.1292 9.60246C17.1292 10.3508 17.2816 11.0072 17.5864 11.5717C17.9044 12.1362 18.3152 12.5694 18.8188 12.8714C19.3357 13.1602 19.879 13.3046 20.4489 13.3046C21.032 13.3046 21.5753 13.1602 22.0789 12.8714C22.5825 12.5826 22.9867 12.1625 23.2915 11.6111C23.6095 11.0466 23.7686 10.3901 23.7686 9.64184ZM34.5573 4.04922C35.4189 4.04922 36.1873 4.22645 36.8632 4.58092C37.5521 4.93538 38.0888 5.46049 38.4733 6.1563C38.8578 6.85212 39.0498 7.6923 39.0498 8.67692V15.0769H36.8035V9.01169C36.8035 8.04018 36.5582 7.29845 36.068 6.78645C35.5779 6.26135 34.9082 5.99876 34.0603 5.99876C33.2124 5.99876 32.5365 6.26135 32.0327 6.78645C31.5426 7.29845 31.2972 8.04018 31.2972 9.01169V15.0769H29.0311V4.22645H31.2972V5.46707C31.6681 5.02073 32.1389 4.67279 32.7086 4.42338C33.2919 4.17396 33.9081 4.04922 34.5573 4.04922ZM46.6912 15.2541C45.6575 15.2541 44.7232 15.0244 43.8883 14.5649C43.0534 14.0923 42.3974 13.4359 41.9204 12.5957C41.4433 11.7423 41.2047 10.7577 41.2047 9.64184C41.2047 8.53907 41.4501 7.56104 41.9402 6.70769C42.431 5.85433 43.1 5.19796 43.948 4.73845C44.7965 4.27895 45.7438 4.04922 46.7906 4.04922C47.8379 4.04922 48.7852 4.27895 49.6332 4.73845C50.4817 5.19796 51.1508 5.85433 51.6409 6.70769C52.1316 7.56104 52.3764 8.53907 52.3764 9.64184C52.3764 10.7446 52.1248 11.7226 51.621 12.576C51.1179 13.4293 50.4283 14.0923 49.5537 14.5649C48.6927 15.0244 47.7385 15.2541 46.6912 15.2541ZM46.6912 13.3046C47.2745 13.3046 47.818 13.1668 48.3212 12.8911C48.838 12.6154 49.2555 12.2018 49.5735 11.6505C49.8916 11.0991 50.0506 10.4295 50.0506 9.64184C50.0506 8.85415 49.8984 8.19119 49.5934 7.65292C49.289 7.10153 48.8846 6.68799 48.3808 6.4123C47.8777 6.13661 47.3341 5.99876 46.7508 5.99876C46.1681 5.99876 45.6246 6.13661 45.1208 6.4123C44.6306 6.68799 44.2399 7.10153 43.948 7.65292C43.6566 8.19119 43.5106 8.85415 43.5106 9.64184C43.5106 10.8103 43.8088 11.7161 44.4052 12.3594C45.0152 12.9895 45.7768 13.3046 46.6912 13.3046ZM53.8617 9.64184C53.8617 8.52596 54.0866 7.54787 54.5376 6.70769C55.001 5.85433 55.6371 5.19796 56.4459 4.73845C57.2541 4.27895 58.1815 4.04922 59.2289 4.04922C60.5539 4.04922 61.6472 4.3643 62.5088 4.99445C63.3835 5.6115 63.973 6.49766 64.278 7.65292H61.8329C61.6342 7.11464 61.3161 6.69458 60.8788 6.39261C60.4414 6.09064 59.8911 5.93969 59.2289 5.93969C58.3008 5.93969 57.5591 6.26787 57.0025 6.9243C56.4589 7.56756 56.1875 8.47341 56.1875 9.64184C56.1875 10.8103 56.4589 11.7226 57.0025 12.3791C57.5591 13.0355 58.3008 13.3637 59.2289 13.3637C60.5408 13.3637 61.4087 12.7926 61.8329 11.6505H64.278C63.9599 12.7532 63.3636 13.6328 62.4889 14.2892C61.6143 14.9325 60.5272 15.2541 59.2289 15.2541C58.1815 15.2541 57.2541 15.0244 56.4459 14.5649C55.6371 14.0923 55.001 13.4359 54.5376 12.5957C54.0866 11.7423 53.8617 10.7577 53.8617 9.64184ZM71.287 15.2541C70.2533 15.2541 69.319 15.0244 68.4841 14.5649C67.6492 14.0923 66.9932 13.4359 66.5162 12.5957C66.0391 11.7423 65.8006 10.7577 65.8006 9.64184C65.8006 8.53907 66.0459 7.56104 66.536 6.70769C67.0262 5.85433 67.6958 5.19796 68.5438 4.73845C69.3917 4.27895 70.3397 4.04922 71.3864 4.04922C72.4331 4.04922 73.3811 4.27895 74.229 4.73845C75.0769 5.19796 75.7466 5.85433 76.2367 6.70769C76.7268 7.56104 76.9722 8.53907 76.9722 9.64184C76.9722 10.7446 76.7206 11.7226 76.2168 12.576C75.713 13.4293 75.0241 14.0923 74.1495 14.5649C73.2879 15.0244 72.3337 15.2541 71.287 15.2541ZM71.287 13.3046C71.8703 13.3046 72.4132 13.1668 72.917 12.8911C73.4339 12.6154 73.8513 12.2018 74.1694 11.6505C74.4874 11.0991 74.6464 10.4295 74.6464 9.64184C74.6464 8.85415 74.4942 8.19119 74.1892 7.65292C73.8842 7.10153 73.4805 6.68799 72.9767 6.4123C72.4729 6.13661 71.9299 5.99876 71.3466 5.99876C70.7633 5.99876 70.2204 6.13661 69.7166 6.4123C69.2265 6.68799 68.8351 7.10153 68.5438 7.65292C68.2524 8.19119 68.1064 8.85415 68.1064 9.64184C68.1064 10.8103 68.4046 11.7161 69.001 12.3594C69.6104 12.9895 70.3726 13.3046 71.287 13.3046ZM78.4569 9.60246C78.4569 8.51279 78.6824 7.54787 79.1328 6.70769C79.5968 5.8675 80.2199 5.21765 81.0013 4.75815C81.7965 4.28553 82.6779 4.04922 83.6452 4.04922C84.3608 4.04922 85.0634 4.20676 85.7523 4.52184C86.4548 4.82381 87.0114 5.23076 87.4221 5.74276V0.504608H89.7081V15.0769H87.4221V13.4425C87.0512 13.9676 86.5344 14.4008 85.8715 14.7421C85.2224 15.0835 84.4738 15.2541 83.6253 15.2541C82.6711 15.2541 81.7965 15.0178 81.0013 14.5452C80.2199 14.0595 79.5968 13.39 79.1328 12.5366C78.6824 11.6701 78.4569 10.6921 78.4569 9.60246ZM87.4221 9.64184C87.4221 8.89353 87.263 8.24369 86.945 7.6923C86.6406 7.14092 86.2362 6.72079 85.7324 6.43199C85.2292 6.14319 84.6857 5.99876 84.1024 5.99876C83.5197 5.99876 82.9761 6.14319 82.4723 6.43199C81.9692 6.70769 81.5579 7.12122 81.2399 7.67261C80.9355 8.21089 80.7827 8.85415 80.7827 9.60246C80.7827 10.3508 80.9355 11.0072 81.2399 11.5717C81.5579 12.1362 81.9692 12.5694 82.4723 12.8714C82.9892 13.1602 83.5327 13.3046 84.1024 13.3046C84.6857 13.3046 85.2292 13.1602 85.7324 12.8714C86.2362 12.5826 86.6406 12.1625 86.945 11.6111C87.263 11.0466 87.4221 10.3901 87.4221 9.64184ZM102.723 9.38584C102.723 9.79279 102.697 10.1604 102.644 10.4886H94.2751C94.341 11.3551 94.6659 12.0509 95.2492 12.576C95.8319 13.1011 96.5475 13.3637 97.396 13.3637C98.6148 13.3637 99.4764 12.8583 99.9802 11.8474H102.425C102.094 12.8451 101.491 13.6657 100.616 14.3089C99.7547 14.9391 98.6813 15.2541 97.396 15.2541C96.3487 15.2541 95.4082 15.0244 94.5733 14.5649C93.7515 14.0923 93.1023 13.4359 92.6252 12.5957C92.1612 11.7423 91.9295 10.7577 91.9295 9.64184C91.9295 8.52596 92.1544 7.54787 92.6053 6.70769C93.0688 5.85433 93.7117 5.19796 94.5336 4.73845C95.3684 4.27895 96.3226 4.04922 97.396 4.04922C98.4297 4.04922 99.3503 4.27242 100.159 4.71876C100.967 5.1651 101.597 5.79525 102.048 6.60922C102.498 7.41002 102.723 8.33556 102.723 9.38584ZM100.358 8.67692C100.344 7.84984 100.046 7.18689 99.4634 6.68799C98.8801 6.1891 98.1576 5.93969 97.2967 5.93969C96.5146 5.93969 95.8455 6.1891 95.2889 6.68799C94.7323 7.17372 94.4006 7.83673 94.295 8.67692H100.358ZM108.929 15.2541C108.068 15.2541 107.292 15.1032 106.603 14.8012C105.928 14.4861 105.391 14.066 104.993 13.5409C104.596 13.0026 104.383 12.4053 104.357 11.7489H106.703C106.743 12.2084 106.961 12.5957 107.359 12.9108C107.769 13.2127 108.279 13.3637 108.89 13.3637C109.526 13.3637 110.016 13.2455 110.36 13.0092C110.718 12.7598 110.897 12.4447 110.897 12.064C110.897 11.657 110.698 11.3551 110.301 11.1581C109.916 10.9612 109.3 10.7446 108.452 10.5083C107.63 10.2851 106.961 10.0685 106.444 9.85845C105.928 9.64842 105.477 9.32676 105.093 8.89353C104.721 8.4603 104.536 7.88922 104.536 7.1803C104.536 6.60264 104.708 6.07753 105.053 5.60492C105.397 5.11919 105.888 4.73845 106.524 4.46276C107.173 4.18707 107.915 4.04922 108.75 4.04922C109.996 4.04922 110.997 4.3643 111.752 4.99445C112.52 5.6115 112.931 6.45827 112.984 7.53476H110.718C110.679 7.04904 110.48 6.66172 110.122 6.37292C109.764 6.08412 109.28 5.93969 108.671 5.93969C108.074 5.93969 107.617 6.05125 107.299 6.27445C106.981 6.49765 106.822 6.79304 106.822 7.16061C106.822 7.44941 106.928 7.6923 107.14 7.88922C107.352 8.08615 107.61 8.24369 107.915 8.36184C108.22 8.46689 108.671 8.60473 109.267 8.77538C110.062 8.98541 110.711 9.20202 111.215 9.42522C111.732 9.63525 112.176 9.95033 112.547 10.3705C112.918 10.7906 113.11 11.3485 113.124 12.0443C113.124 12.6613 112.951 13.2127 112.607 13.6985C112.262 14.1842 111.772 14.5649 111.136 14.8406C110.513 15.1163 109.777 15.2541 108.929 15.2541ZM6.01434 19.5175C6.01434 19.9089 5.92116 20.2781 5.7348 20.6252C5.54844 20.9723 5.25027 21.2566 4.84027 21.4781C4.43028 21.6923 3.90474 21.7994 3.26366 21.7994H1.85478V24.9231H0.580078V17.2246H3.26366C3.86002 17.2246 4.36319 17.328 4.77318 17.5348C5.19063 17.7341 5.49999 18.0074 5.70126 18.3545C5.90998 18.7015 6.01434 19.0892 6.01434 19.5175ZM3.26366 20.7692C3.7482 20.7692 4.10974 20.6621 4.34828 20.448C4.58682 20.2265 4.70609 19.9163 4.70609 19.5175C4.70609 18.6757 4.22528 18.2548 3.26366 18.2548H1.85478V20.7692H3.26366ZM8.5048 19.7058C8.69116 19.3957 8.93715 19.1557 9.24278 18.9858C9.55587 18.8086 9.92486 18.72 10.3498 18.72V20.0271H10.0255C9.52605 20.0271 9.14588 20.1526 8.88497 20.4037C8.63152 20.6548 8.5048 21.0905 8.5048 21.7108V24.9231H7.23009V18.8197H8.5048V19.7058ZM14.1939 25.0228C13.6124 25.0228 13.0869 24.8935 12.6173 24.6351C12.1476 24.3692 11.7786 24 11.5103 23.5274C11.2419 23.0474 11.1078 22.4935 11.1078 21.8658C11.1078 21.2455 11.2457 20.6954 11.5215 20.2154C11.7973 19.7354 12.1737 19.3661 12.6508 19.1077C13.1279 18.8492 13.6609 18.72 14.2498 18.72C14.8387 18.72 15.3717 18.8492 15.8488 19.1077C16.3258 19.3661 16.7023 19.7354 16.9781 20.2154C17.2539 20.6954 17.3918 21.2455 17.3918 21.8658C17.3918 22.4861 17.2502 23.0363 16.9669 23.5163C16.6836 23.9963 16.296 24.3692 15.804 24.6351C15.3195 24.8935 14.7828 25.0228 14.1939 25.0228ZM14.1939 23.9261C14.5219 23.9261 14.8275 23.8486 15.1108 23.6935C15.4015 23.5385 15.6363 23.3058 15.8152 22.9957C15.9941 22.6855 16.0836 22.3089 16.0836 21.8658C16.0836 21.4228 15.9978 21.0498 15.8264 20.7471C15.6549 20.4369 15.4276 20.2043 15.1443 20.0492C14.861 19.8941 14.5554 19.8166 14.2274 19.8166C13.8994 19.8166 13.5938 19.8941 13.3105 20.0492C13.0347 20.2043 12.8148 20.4369 12.6508 20.7471C12.4868 21.0498 12.4048 21.4228 12.4048 21.8658C12.4048 22.5231 12.5725 23.0326 12.908 23.3945C13.2509 23.7489 13.6795 23.9261 14.1939 23.9261ZM21.1342 18.72C21.6113 18.72 22.0325 18.816 22.3978 19.008C22.7705 19.1926 23.0612 19.4252 23.2699 19.7058V18.8197H24.5558V25.0228C24.5558 25.584 24.4365 26.0825 24.198 26.5181C23.9595 26.9612 23.6128 27.3083 23.1581 27.5594C22.7108 27.8105 22.1741 27.936 21.548 27.936C20.7131 27.936 20.0198 27.7403 19.4682 27.3489C18.9166 26.9649 18.6035 26.4406 18.5289 25.776H19.7924C19.8894 26.0935 20.0943 26.3483 20.4074 26.5403C20.728 26.7397 21.1081 26.8394 21.548 26.8394C22.0623 26.8394 22.476 26.6843 22.7891 26.3741C23.1097 26.064 23.2699 25.6135 23.2699 25.0228V24.0037C23.0537 24.2917 22.7593 24.5354 22.3866 24.7348C22.0213 24.9268 21.6039 25.0228 21.1342 25.0228C20.5975 25.0228 20.1055 24.8898 19.6583 24.624C19.2185 24.3508 18.8681 23.9741 18.6072 23.4941C18.3537 23.0068 18.227 22.4566 18.227 21.8437C18.227 21.2308 18.3537 20.688 18.6072 20.2154C18.8681 19.7428 19.2185 19.3772 19.6583 19.1188C20.1055 18.8529 20.5975 18.72 21.1342 18.72ZM23.2699 21.8658C23.2699 21.4449 23.1805 21.0794 23.0016 20.7692C22.8301 20.4591 22.6028 20.2228 22.3195 20.0603C22.0362 19.8978 21.7306 19.8166 21.4026 19.8166C21.0746 19.8166 20.769 19.8978 20.4857 20.0603C20.2024 20.2154 19.9714 20.448 19.7924 20.7581C19.621 21.0609 19.5353 21.4228 19.5353 21.8437C19.5353 22.2646 19.621 22.6338 19.7924 22.9514C19.9714 23.2689 20.2024 23.5126 20.4857 23.6825C20.7764 23.8449 21.0821 23.9261 21.4026 23.9261C21.7306 23.9261 22.0362 23.8449 22.3195 23.6825C22.6028 23.52 22.8301 23.2837 23.0016 22.9735C23.1805 22.656 23.2699 22.2868 23.2699 21.8658ZM27.5048 19.7058C27.6911 19.3957 27.9371 19.1557 28.2428 18.9858C28.5558 18.8086 28.9248 18.72 29.3497 18.72V20.0271H29.0255C28.526 20.0271 28.1459 20.1526 27.885 20.4037C27.6315 20.6548 27.5048 21.0905 27.5048 21.7108V24.9231H26.2301V18.8197H27.5048V19.7058ZM30.0964 21.8437C30.0964 21.2308 30.2231 20.688 30.4766 20.2154C30.7375 19.7428 31.0879 19.3772 31.5277 19.1188C31.9749 18.8529 32.4669 18.72 33.0036 18.72C33.4882 18.72 33.9094 18.816 34.2672 19.008C34.6324 19.1926 34.9232 19.4252 35.1393 19.7058V18.8197H36.4252V24.9231H35.1393V24.0148C34.9232 24.3028 34.6287 24.5428 34.256 24.7348C33.8833 24.9268 33.4584 25.0228 32.9813 25.0228C32.452 25.0228 31.9675 24.8898 31.5277 24.624C31.0879 24.3508 30.7375 23.9741 30.4766 23.4941C30.2231 23.0068 30.0964 22.4566 30.0964 21.8437ZM35.1393 21.8658C35.1393 21.4449 35.0499 21.0794 34.871 20.7692C34.6995 20.4591 34.4722 20.2228 34.1889 20.0603C33.9056 19.8978 33.6 19.8166 33.272 19.8166C32.944 19.8166 32.6384 19.8978 32.3551 20.0603C32.0718 20.2154 31.8408 20.448 31.6618 20.7581C31.4904 21.0609 31.4047 21.4228 31.4047 21.8437C31.4047 22.2646 31.4904 22.6338 31.6618 22.9514C31.8408 23.2689 32.0718 23.5126 32.3551 23.6825C32.6458 23.8449 32.9515 23.9261 33.272 23.9261C33.6 23.9261 33.9056 23.8449 34.1889 23.6825C34.4722 23.52 34.6995 23.2837 34.871 22.9735C35.0499 22.656 35.1393 22.2868 35.1393 21.8658ZM45.5575 18.72C46.042 18.72 46.4744 18.8197 46.8545 19.0191C47.2422 19.2185 47.5441 19.5138 47.7603 19.9052C47.9839 20.2966 48.0957 20.7692 48.0957 21.3231V24.9231H46.8322V21.5114C46.8322 20.9649 46.6943 20.5477 46.4185 20.2597C46.1427 19.9643 45.7662 19.8166 45.2891 19.8166C44.812 19.8166 44.4319 19.9643 44.1486 20.2597C43.8728 20.5477 43.7349 20.9649 43.7349 21.5114V24.9231H42.4714V21.5114C42.4714 20.9649 42.3335 20.5477 42.0576 20.2597C41.7818 19.9643 41.4054 19.8166 40.9283 19.8166C40.4512 19.8166 40.071 19.9643 39.7878 20.2597C39.512 20.5477 39.3741 20.9649 39.3741 21.5114V24.9231H38.0993V18.8197H39.3741V19.5175C39.5828 19.2665 39.8474 19.0708 40.1679 18.9305C40.4885 18.7901 40.8314 18.72 41.1967 18.72C41.6886 18.72 42.1285 18.8234 42.5161 19.0301C42.9037 19.2369 43.2019 19.536 43.4106 19.9274C43.597 19.5581 43.8877 19.2665 44.2828 19.0523C44.6779 18.8308 45.1028 18.72 45.5575 18.72ZM57.1764 18.72C57.661 18.72 58.0933 18.8197 58.4735 19.0191C58.8611 19.2185 59.163 19.5138 59.3792 19.9052C59.6028 20.2966 59.7146 20.7692 59.7146 21.3231V24.9231H58.4511V21.5114C58.4511 20.9649 58.3132 20.5477 58.0374 20.2597C57.7616 19.9643 57.3851 19.8166 56.9081 19.8166C56.431 19.8166 56.0508 19.9643 55.7675 20.2597C55.4917 20.5477 55.3538 20.9649 55.3538 21.5114V24.9231H54.0903V21.5114C54.0903 20.9649 53.9524 20.5477 53.6766 20.2597C53.4008 19.9643 53.0243 19.8166 52.5472 19.8166C52.0701 19.8166 51.69 19.9643 51.4067 20.2597C51.1309 20.5477 50.993 20.9649 50.993 21.5114V24.9231H49.7183V18.8197H50.993V19.5175C51.2017 19.2665 51.4663 19.0708 51.7869 18.9305C52.1074 18.7901 52.4503 18.72 52.8156 18.72C53.3076 18.72 53.7474 18.8234 54.135 19.0301C54.5226 19.2369 54.8208 19.536 55.0295 19.9274C55.2159 19.5581 55.5066 19.2665 55.9017 19.0523C56.2968 18.8308 56.7217 18.72 57.1764 18.72ZM61.9851 18.0111C61.7541 18.0111 61.5602 17.9335 61.4037 17.7785C61.2471 17.6234 61.1689 17.4314 61.1689 17.2025C61.1689 16.9735 61.2471 16.7815 61.4037 16.6265C61.5602 16.4714 61.7541 16.3938 61.9851 16.3938C62.2088 16.3938 62.3989 16.4714 62.5554 16.6265C62.7119 16.7815 62.7902 16.9735 62.7902 17.2025C62.7902 17.4314 62.7119 17.6234 62.5554 17.7785C62.3989 17.9335 62.2088 18.0111 61.9851 18.0111ZM62.6113 18.8197V24.9231H61.3366V18.8197H62.6113ZM67.3933 18.72C67.8778 18.72 68.3102 18.8197 68.6904 19.0191C69.078 19.2185 69.3799 19.5138 69.5961 19.9052C69.8123 20.2966 69.9204 20.7692 69.9204 21.3231V24.9231H68.6568V21.5114C68.6568 20.9649 68.5189 20.5477 68.2431 20.2597C67.9673 19.9643 67.5909 19.8166 67.1138 19.8166C66.6367 19.8166 66.2565 19.9643 65.9732 20.2597C65.6974 20.5477 65.5595 20.9649 65.5595 21.5114V24.9231H64.2848V18.8197H65.5595V19.5175C65.7682 19.2665 66.0329 19.0708 66.3534 18.9305C66.6814 18.7901 67.028 18.72 67.3933 18.72ZM74.0284 18.72C74.5054 18.72 74.9266 18.816 75.2919 19.008C75.6646 19.1926 75.9553 19.4252 76.164 19.7058V18.8197H77.4499V25.0228C77.4499 25.584 77.3307 26.0825 77.0921 26.5181C76.8536 26.9612 76.5069 27.3083 76.0522 27.5594C75.6049 27.8105 75.0682 27.936 74.4421 27.936C73.6072 27.936 72.9139 27.7403 72.3623 27.3489C71.8107 26.9649 71.4976 26.4406 71.423 25.776H72.6866C72.7835 26.0935 72.9885 26.3483 73.3015 26.5403C73.6221 26.7397 74.0023 26.8394 74.4421 26.8394C74.9564 26.8394 75.3701 26.6843 75.6832 26.3741C76.0038 26.064 76.164 25.6135 76.164 25.0228V24.0037C75.9479 24.2917 75.6534 24.5354 75.2807 24.7348C74.9154 24.9268 74.498 25.0228 74.0284 25.0228C73.4916 25.0228 72.9996 24.8898 72.5524 24.624C72.1126 24.3508 71.7622 23.9741 71.5013 23.4941C71.2479 23.0068 71.1211 22.4566 71.1211 21.8437C71.1211 21.2308 71.2479 20.688 71.5013 20.2154C71.7622 19.7428 72.1126 19.3772 72.5524 19.1188C72.9996 18.8529 73.4916 18.72 74.0284 18.72ZM76.164 21.8658C76.164 21.4449 76.0746 21.0794 75.8957 20.7692C75.7242 20.4591 75.4969 20.2228 75.2136 20.0603C74.9303 19.8978 74.6247 19.8166 74.2967 19.8166C73.9687 19.8166 73.6631 19.8978 73.3798 20.0603C73.0965 20.2154 72.8655 20.448 72.6866 20.7581C72.5151 21.0609 72.4294 21.4228 72.4294 21.8437C72.4294 22.2646 72.5151 22.6338 72.6866 22.9514C72.8655 23.2689 73.0965 23.5126 73.3798 23.6825C73.6705 23.8449 73.9762 23.9261 74.2967 23.9261C74.6247 23.9261 74.9303 23.8449 75.2136 23.6825C75.4969 23.52 75.7242 23.2837 75.8957 22.9735C76.0746 22.656 76.164 22.2868 76.164 21.8658Z" fill="#DDE5FB"/>
</svg>
